# Wavefront OBJ exported by MilkShape 3D

mtllib demoKF.mtl

v -527.000000 60.000641 -933.754639
v -527.000000 200.000641 -933.754639
v -541.000000 200.000793 -1135.754639
v -541.000000 60.000801 -1135.754639
v -269.000000 51.000481 -775.000000
v -525.000000 60.000641 -935.000000
v -801.000000 60.000481 -814.000000
v -284.000000 60.000481 -636.000000
v 120.000000 320.000610 -987.999756
v 500.000000 320.000763 -1087.000000
v -160.000000 380.000946 -1409.000122
v -88.000000 380.000610 -965.999695
v -539.000000 380.000763 -1137.000000
v -461.000031 380.000946 -1409.000122
v -836.000000 380.000763 -1164.000000
v 118.000000 60.000320 -483.000000
v -32.000000 60.000481 -778.000000
v 259.000000 60.000320 -524.000000
v -88.000000 191.000671 -966.000000
v -32.000000 191.000488 -778.000000
v 259.000000 320.000336 -524.000000
v -539.000000 60.000801 -1137.000000
v -836.000000 60.000801 -1164.000000
v -1472.000000 60.000481 -850.000000
v -701.000000 0.000160 -301.000000
v -801.000000 0.000480 -814.000000
v -1472.000000 0.000480 -850.000000
v -284.000000 0.000480 -636.000000
v 110.000000 0.000160 -243.000000
v 118.000000 0.000320 -483.000000
v 222.000000 0.000320 -399.000000
v 259.000000 0.000320 -524.000000
v 1154.000000 0.000480 -675.000000
v 735.000000 0.000480 -715.000000
v 691.000000 0.000160 -247.000000
v 618.000000 0.000320 -421.000031
v 504.000000 0.000320 -528.000000
v 321.000031 -27.999680 -485.000000
v 443.000000 -27.999680 -487.000000
v 320.000000 -80.000801 1240.000000
v 160.000000 -80.000473 760.000000
v -200.000000 -80.000473 760.000000
v -400.000000 -80.000801 1160.000000
v -40.000000 -80.000961 1520.000000
v -525.000000 119.999359 979.000000
v -775.000000 119.999840 173.000000
v -1185.000000 119.999527 819.000000
v -560.000000 119.999840 200.000000
v -200.000000 119.999527 760.000000
v -200.000000 119.999680 500.000153
v -1472.000000 120.000000 -6.000000
v 160.000000 -0.000320 500.000000
v -200.000000 -0.000320 500.000000
v -520.000000 0.000000 -117.000000
v -734.000000 0.000160 -145.000000
v 103.000000 0.000000 -54.000000
v -560.000000 -0.000160 200.000000
v 302.000000 -0.000000 62.000000
v 1392.000000 -0.000640 876.000000
v 160.000000 -0.000480 760.000000
v 320.000000 -0.000800 1240.000000
v 565.000000 0.000000 -53.000000
v 345.000000 -60.000000 -92.000000
v 454.000000 -10.000000 22.000000
v 379.000000 -59.999840 -219.000000
v 401.000031 -59.999680 -400.000000
v -1472.000000 -80.000000 -6.000000
v -1473.000000 -79.999680 -368.000000
v -525.000000 200.000641 -935.000000
v -539.000000 200.000793 -1137.000000
v -269.000000 191.000488 -775.000000
v 504.000000 320.000336 -527.999939
v 735.000000 320.000488 -714.999878
v 860.000000 -20.000000 14.000000
v 1053.000000 -60.000000 39.000000
v 1053.000000 -60.000000 -61.000000
v 914.000000 0.000000 -37.000000
v 677.000061 -10.000000 12.000000
v 859.000000 -10.000000 80.000000
v 509.000000 -20.000000 -16.000000
v 666.000000 -0.000160 255.000000
v 661.000000 -10.000000 88.000000
v 873.000000 -0.000160 189.000000
v 669.000000 -20.000000 50.000000
v 923.000000 -40.000160 189.000000
v 1053.000000 -60.000000 119.000000
v 983.000000 -50.000160 179.000000
v 1173.000000 -0.000000 119.000000
v 983.000000 -0.000160 179.000000
v 1123.000000 -0.000160 179.000000
v 1053.000000 -0.000000 119.000000
v 923.000000 -40.000160 269.000000
v 983.000000 -60.000160 278.999908
v 1306.000000 -60.000160 212.000000
v 1123.000000 -60.000160 278.999908
v 1392.000000 -60.000160 282.999847
v 1123.000000 -60.000160 178.999924
v 1233.000000 -60.000160 178.999924
v 1173.000000 -60.000000 119.000000
v 1293.000000 -60.000000 -21.000000
v 1093.000000 -60.000000 -61.000000
v 1233.000000 -60.000000 -1.000000
v 1173.000000 -60.000000 39.000000
v 1093.000000 -60.000000 -101.000000
v 1392.000000 -59.999840 -283.000000
v 1151.000000 0.000160 -240.000000
v 1053.000000 -40.000000 -101.000000
v 873.000000 -0.000160 269.000000
v 931.000000 -0.000320 394.000000
v 1053.000000 0.000000 -101.000000
v 1053.000000 0.000000 -61.000000
v 1093.000000 0.000000 -61.000000
v 1093.000000 0.000000 -101.000000
v 1053.000000 -0.000000 39.000000
v 1173.000000 -0.000000 39.000000
v 923.000000 -0.000160 269.000000
v 923.000000 -0.000160 189.000000
v 983.000000 -0.000160 279.000000
v 1123.000000 -0.000160 279.000000
v 1233.000000 -24.000000 -1.000000
v 1233.000000 -24.000160 179.000000
v 1293.000000 0.000000 -21.000000
v 1306.000000 -0.000160 212.000000
v 1392.000000 0.000160 -283.000000
v 1516.000000 -0.000000 23.000000
v 1516.000000 -0.000160 183.000000
v 1392.000000 -0.000160 283.000000
v 1123.000000 -0.000320 379.000000
v 1023.000000 -0.000320 379.000000
v 1023.000000 -0.000320 419.000000
v 1123.000000 -0.000320 419.000000
v 1392.000000 -0.000320 445.000000
v 1123.000000 -40.000320 379.000000
v 1023.000000 -40.000320 379.000000
v -1472.000000 119.999397 850.000000
v -821.000000 119.999359 1059.000000
v -400.000000 119.999199 1160.000000
v -749.000000 119.999359 1059.000000
v -785.000000 119.999359 1019.000000
v -805.000000 119.999359 1059.000000
v -765.000000 119.999359 1059.000000
v 1151.000000 -11.999840 -240.000000
v 1293.000000 -12.000000 -1.000000
v 1392.000000 -11.999840 -283.000000
v 914.000000 -12.000000 -37.000000
v 859.000000 -12.000000 80.000000
v 1306.000000 -12.000160 212.000000
v 873.000000 -12.000160 179.000000
v 873.000000 -12.000160 259.000000
v 931.000000 -12.000320 394.000000
v 1392.000000 -12.000320 445.000000
v 1392.000000 -12.000160 283.000000
v 677.000061 -12.000000 12.000000
v 661.000000 -12.000000 88.000000
v 565.000000 -12.000000 -53.000000
v 454.000000 -12.000000 22.000000
v 222.000000 -11.999680 -399.000000
v 504.000000 -11.999680 -528.000000
v 259.000000 -11.999680 -524.000000
v 618.000000 -11.999680 -421.000031
v 691.000000 -11.999840 -247.000000
v 110.000000 -11.999840 -243.000000
v 302.000000 -12.000000 62.000000
v 103.000000 -12.000000 -54.000000
# 164 vertices

vt -1.903728 -0.574906
vt -1.906563 1.358858
vt 3.673728 1.360904
vt 3.676564 -0.572860
vt -4.684075 -7.340258
vt -5.592492 -8.968429
vt -4.703020 -10.614771
vt -3.797636 -7.416574
vt -6.585150 -5.279228
vt -7.469940 -2.746011
vt -9.347285 -7.316833
vt -6.404672 -6.737792
vt -7.303153 -9.708233
vt -9.156971 -9.269875
vt -7.316261 -11.593133
vt -2.976017 -4.845387
vt -4.819626 -5.868233
vt -3.299585 -3.948743
vt -6.162191 -6.452589
vt -4.955202 -6.048363
vt -3.512687 -4.236141
vt -6.863364 -9.097543
vt -6.880203 -10.897393
vt -4.634223 -14.562895
vt -1.480888 -9.788639
vt -4.645329 -10.493998
vt -4.578394 -14.409976
vt -3.747209 -7.322950
vt -1.385427 -4.768997
vt -2.932509 -4.774326
vt -2.431257 -4.092669
vt -3.252856 -3.885726
vt -4.631513 1.983004
vt -4.701566 -0.836924
vt -1.612901 -1.009757
vt -2.726227 -1.533812
vt -3.378850 -2.305340
vt -3.004974 -3.451402
vt -3.066340 -2.667593
vt 8.127411 -2.996711
vt 5.046645 -4.128230
vt 5.089406 -6.376149
vt 7.633960 -7.514416
vt 9.924434 -5.209758
vt 6.649808 -8.657481
vt 1.506843 -10.371085
vt 5.680424 -12.704801
vt 1.628746 -9.045651
vt 5.195491 -6.663883
vt 3.497741 -6.723605
vt 0.553509 -14.555403
vt 3.401481 -4.276079
vt 3.464680 -6.547890
vt -0.381371 -8.655050
vt -0.493220 -9.953898
vt -0.165709 -4.769247
vt 1.630151 -8.829933
vt 0.527539 -3.469800
vt 5.720105 4.042936
vt 5.088277 -4.214577
vt 8.207999 -3.069478
vt -0.299121 -1.789975
vt -0.465016 -3.173687
vt 0.226521 -2.487724
vt -1.293495 -2.986520
vt -2.466353 -2.888994
vt 0.587030 -14.050455
vt -1.600212 -14.124739
vt -5.751950 -9.225586
vt -7.050371 -9.357221
vt -4.824800 -7.563610
vt -3.647644 -2.575314
vt -5.042905 -1.030757
vt 0.057734 0.187975
vt 0.175763 1.498400
vt -0.483997 1.472299
vt -0.301727 0.528310
vt 0.096168 -1.031027
vt 0.491560 0.194091
vt -0.034640 -2.131504
vt 1.695487 -1.048650
vt 0.599693 -1.117424
vt 1.207900 0.311758
vt 0.350104 -1.068125
vt 1.198193 0.661015
vt 0.703900 1.519293
vt 1.117518 1.062914
vt 0.660751 2.324355
vt 1.112815 1.049006
vt 1.075838 1.998902
vt 0.694267 1.506963
vt 1.726175 0.681665
vt 1.777713 1.091586
vt 1.253436 3.259310
vt 1.744325 2.032942
vt 1.706004 3.868836
vt 1.081855 2.006570
vt 1.052848 2.752314
vt 0.670745 2.328920
vt -0.294480 3.107702
vt -0.496666 1.741188
vt -0.143003 2.704244
vt 0.140403 2.307712
vt -0.760808 1.730700
vt -2.072866 3.714750
vt -1.731751 2.078257
vt -0.755584 1.457601
vt 1.738328 0.332403
vt 2.555454 0.754464
vt -0.771352 1.448990
vt -0.505043 1.459521
vt -0.517863 1.730985
vt -0.784544 1.720396
vt 0.161053 1.485871
vt 0.125290 2.302947
vt 1.726308 0.668129
vt 1.194949 0.647355
vt 1.778400 1.075169
vt 1.744692 2.025531
vt -0.153689 2.703685
vt 1.049072 2.752036
vt -0.313869 3.110672
vt 1.249048 3.263752
vt -2.109592 3.723624
vt -0.086978 4.672540
vt 0.997181 4.717253
vt 1.706004 3.879229
vt 2.414022 2.052169
vt 2.435793 1.372060
vt 2.702718 1.382595
vt 2.681886 2.062832
vt 2.800926 3.923880
vt 2.409496 2.056960
vt 2.431144 1.381164
vt 5.902367 -14.389001
vt 7.182219 -10.463170
vt 7.818801 -7.836070
vt 7.178733 -10.023004
vt 6.923715 -10.251892
vt 7.181440 -10.365540
vt 7.179510 -10.121004
vt 1.436073 2.089908
vt 2.854556 1.407943
vt 2.396582 2.964902
vt 0.974494 0.455873
vt 1.088118 -0.271169
vt 3.623198 0.446881
vt 1.475952 -0.711194
vt 1.738947 -1.106356
vt 2.469128 -1.600122
vt 4.825646 -0.416335
vt 4.263067 0.366770
vt 0.001291 -0.496791
vt 0.164406 -0.918527
vt -0.741018 -0.523078
vt -1.048437 -1.234779
vt -3.432968 0.104108
vt -2.448142 1.536950
vt -3.608353 0.803451
vt -1.597371 1.376818
vt -0.731854 0.782916
vt -3.533767 -0.991770
vt -1.672903 -1.912937
vt -3.013956 -1.956251
# 164 texture coordinates

vn -0.997607 0.000000 0.069141
vn -0.000933 0.999465 -0.032707
vn 0.007243 0.999837 0.016523
vn 0.007190 0.999957 -0.005853
vn -0.005764 0.999028 -0.043707
vn -0.151346 0.985188 0.080615
vn 0.007861 0.999514 0.030176
vn 0.076647 0.996873 0.019222
vn 0.137625 0.990232 -0.022367
vn -0.000000 1.000000 0.000001
vn -0.012918 0.999654 -0.022924
vn -0.120348 0.991750 0.044144
vn -0.351462 0.930297 0.104989
vn -0.175609 0.983053 0.052608
vn -0.036262 0.999064 0.023577
vn -0.058113 0.994968 0.081613
vn 0.094617 0.995048 0.030450
vn 0.201274 0.977786 0.058502
vn 0.098072 0.939092 0.329376
vn -0.097916 0.995103 -0.013472
vn -0.150686 0.980949 0.122609
vn -0.083088 0.953204 0.290687
vn 0.178203 0.942978 0.281133
vn -0.094531 0.908694 0.406619
vn 0.000000 0.980199 0.198013
vn -0.000000 0.995087 0.099007
vn -0.013425 0.983449 -0.180687
vn 0.011086 0.996034 -0.088276
vn -0.000000 0.998783 0.049319
vn -0.000000 0.988883 0.148697
vn 0.012924 0.994822 -0.100804
vn -0.067604 0.986386 -0.149907
vn 0.061261 0.997159 -0.043835
vn 0.038439 0.987034 -0.155842
vn -0.128979 0.987479 0.090825
vn -0.022573 0.990052 -0.138879
vn 0.016976 0.977114 -0.212036
vn 0.071775 0.996835 0.034177
vn -0.007526 0.991264 0.131681
vn -0.140569 0.972302 -0.186732
vn -0.108559 0.992966 0.047258
vn 0.021281 0.999726 0.009748
vn 0.020490 0.999789 -0.001419
vn 0.011036 0.999884 0.010459
vn 0.130657 0.984231 0.119239
vn 0.168933 0.984970 -0.035983
vn 0.217118 0.948887 0.229068
vn 0.197410 0.923374 0.329255
vn -0.024291 0.958867 0.282816
vn 0.223099 0.972389 -0.068464
vn -0.101429 0.994290 0.033174
vn 0.005521 0.999665 -0.025279
vn 0.002846 0.989509 -0.144446
vn 0.102521 0.993385 -0.051727
vn 0.009571 0.999363 -0.034380
vn 0.301637 0.953410 0.005005
vn 0.214145 0.975157 0.056669
vn 0.212196 0.976277 0.043081
vn 0.360108 0.918055 -0.165821
vn 0.166166 0.973479 -0.157249
vn 0.000733 0.995133 -0.098537
vn -0.017264 0.982970 -0.182955
vn 0.179086 0.949628 0.257168
vn 0.152507 0.956016 0.250549
vn 0.199948 0.943079 0.265749
vn 0.420334 0.771876 0.476998
vn 0.157567 0.984798 -0.073111
vn 0.201026 0.952580 -0.228429
vn -0.371390 0.928477 0.000001
vn -0.345608 0.938336 0.008919
vn -0.140300 0.990102 0.003621
vn -0.107779 0.994157 0.006014
vn 0.039732 0.988455 -0.146214
vn 0.018074 0.982195 -0.186994
vn 0.004936 0.929006 -0.370031
vn 0.003482 0.941501 -0.336993
vn 0.225794 0.892145 -0.391273
# 77 normals

g climbwall
usemtl Material.017
s 1
f 1/1/1 2/2/1 3/3/1
f 1/1/1 3/3/1 4/4/1
# 2 triangles in group

g ground
usemtl Material.016
f 5/5/2 6/6/3 7/7/4
f 5/5/2 7/7/4 8/8/5
f 9/9/6 10/10/7 11/11/8
f 12/12/9 9/9/6 11/11/8
f 13/13/10 11/11/8 14/14/10
f 15/15/10 13/13/10 14/14/10
f 16/16/10 17/17/11 8/8/5
f 16/16/10 18/18/10 17/17/11
f 17/17/11 5/5/2 8/8/5
f 19/19/12 20/20/13 9/9/6
f 20/20/13 21/21/14 9/9/6
f 22/22/10 23/23/10 7/7/4
f 22/22/10 7/7/4 6/6/3
f 23/23/10 24/24/10 7/7/4
f 25/25/15 26/26/10 27/27/16
f 26/26/10 25/25/15 28/28/10
f 29/29/17 30/30/10 28/28/10
f 30/30/10 29/29/17 31/31/18
f 30/30/10 31/31/18 32/32/19
f 33/33/10 34/34/10 35/35/20
f 34/34/10 36/36/21 35/35/20
f 36/36/21 34/34/10 37/37/22
f 32/32/19 38/38/23 39/39/24
f 32/32/19 39/39/24 37/37/22
f 40/40/10 41/41/25 42/42/26
f 40/40/10 42/42/26 43/43/10
f 40/40/10 43/43/10 44/44/10
f 45/45/10 46/46/27 47/47/10
f 45/45/10 48/48/28 46/46/27
f 45/45/10 49/49/10 48/48/28
f 49/49/10 50/50/10 48/48/28
f 46/46/27 51/51/10 47/47/10
f 41/41/25 52/52/29 53/53/30
f 41/41/25 53/53/30 42/42/26
f 54/54/31 55/55/32 46/46/27
f 54/54/31 46/46/27 48/48/28
f 25/25/15 55/55/32 54/54/31
f 25/25/15 54/54/31 28/28/10
f 28/28/10 54/54/31 29/29/17
f 56/56/33 29/29/17 54/54/31
f 54/54/31 57/57/10 56/56/33
f 57/57/10 53/53/30 56/56/33
f 56/56/33 53/53/30 52/52/29
f 56/56/33 52/52/29 58/58/34
f 59/59/10 52/52/29 60/60/10
f 59/59/10 60/60/10 61/61/10
f 62/62/35 35/35/20 63/63/36
f 58/58/34 64/64/37 63/63/36
f 56/56/33 58/58/34 63/63/36
f 29/29/17 56/56/33 63/63/36
f 65/65/38 29/29/17 63/63/36
f 35/35/20 65/65/38 63/63/36
f 65/65/38 35/35/20 66/66/39
f 31/31/18 29/29/17 65/65/38
f 31/31/18 65/65/38 66/66/39
f 31/31/18 66/66/39 38/38/23
f 35/35/20 36/36/21 66/66/39
f 66/66/39 36/36/21 39/39/24
f 36/36/21 37/37/22 39/39/24
f 66/66/39 39/39/24 38/38/23
f 32/32/19 31/31/18 38/38/23
f 67/67/40 46/46/27 55/55/32
f 68/68/41 25/25/15 27/27/16
f 12/12/9 11/11/8 13/13/10
f 69/69/42 19/19/12 70/70/43
f 69/69/42 71/71/44 19/19/12
f 71/71/44 20/20/13 19/19/12
f 9/9/6 21/21/14 10/10/7
f 21/21/14 72/72/10 10/10/7
f 72/72/10 73/73/10 10/10/7
f 55/55/32 68/68/41 67/67/40
f 55/55/32 25/25/15 68/68/41
f 74/74/45 75/75/46 76/76/47
f 77/77/48 74/74/45 76/76/47
f 62/62/35 78/78/49 77/77/48
f 35/35/20 62/62/35 77/77/48
f 74/74/45 79/79/50 75/75/46
f 80/80/51 62/62/35 63/63/36
f 64/64/37 80/80/51 63/63/36
f 64/64/37 58/58/34 81/81/52
f 82/82/53 64/64/37 81/81/52
f 82/82/53 81/81/52 83/83/54
f 79/79/50 82/82/53 83/83/54
f 74/74/45 77/77/48 78/78/49
f 74/74/45 78/78/49 84/84/55
f 82/82/53 79/79/50 74/74/45
f 82/82/53 74/74/45 84/84/55
f 78/78/49 62/62/35 80/80/51
f 84/84/55 78/78/49 80/80/51
f 64/64/37 82/82/53 84/84/55
f 64/64/37 84/84/55 80/80/51
f 79/79/50 85/85/56 86/86/57
f 86/86/57 85/85/56 87/87/58
f 88/88/10 89/89/10 90/90/10
f 89/89/10 88/88/10 91/91/10
f 87/87/58 85/85/56 92/92/59
f 87/87/58 92/92/59 93/93/60
f 94/94/10 95/95/61 96/96/62
f 94/94/10 97/97/10 95/95/61
f 98/98/10 97/97/10 94/94/10
f 98/98/10 99/99/10 97/97/10
f 100/100/10 101/101/10 102/102/10
f 101/101/10 103/103/10 102/102/10
f 104/104/63 101/101/10 100/100/10
f 104/104/63 100/100/10 105/105/64
f 104/104/63 105/105/64 106/106/65
f 107/107/66 104/104/63 106/106/65
f 77/77/48 107/107/66 106/106/65
f 76/76/47 107/107/66 77/77/48
f 86/86/57 75/75/46 79/79/50
f 76/76/47 75/75/46 103/103/10
f 103/103/10 101/101/10 76/76/47
f 99/99/10 98/98/10 102/102/10
f 99/99/10 102/102/10 103/103/10
f 92/92/59 108/108/67 109/109/68
f 85/85/56 79/79/50 83/83/54
f 108/108/67 83/83/54 81/81/52
f 109/109/68 108/108/67 81/81/52
f 110/110/10 111/111/10 112/112/10
f 110/110/10 112/112/10 113/113/10
f 114/114/10 91/91/10 88/88/10
f 114/114/10 88/88/10 115/115/10
f 83/83/54 108/108/67 116/116/10
f 83/83/54 116/116/10 117/117/10
f 89/89/10 118/118/10 119/119/10
f 89/89/10 119/119/10 90/90/10
f 120/120/69 121/121/70 122/122/71
f 121/121/70 123/123/72 122/122/71
f 81/81/52 58/58/34 52/52/29
f 52/52/29 59/59/10 81/81/52
f 109/109/68 81/81/52 59/59/10
f 35/35/20 77/77/48 106/106/65
f 35/35/20 106/106/65 33/33/10
f 33/33/10 106/106/65 124/124/10
f 124/124/10 122/122/71 125/125/10
f 122/122/71 123/123/72 126/126/10
f 122/122/71 126/126/10 125/125/10
f 123/123/72 127/127/10 126/126/10
f 128/128/10 129/129/10 130/130/73
f 128/128/10 130/130/73 131/131/74
f 132/132/75 96/96/62 133/133/76
f 132/132/75 133/133/76 131/131/74
f 109/109/68 130/130/73 134/134/77
f 93/93/60 134/134/77 133/133/76
f 133/133/76 96/96/62 95/95/61
f 133/133/76 95/95/61 93/93/60
f 130/130/73 109/109/68 59/59/10
f 131/131/74 130/130/73 59/59/10
f 59/59/10 132/132/75 131/131/74
f 93/93/60 92/92/59 134/134/77
f 92/92/59 109/109/68 134/134/77
f 51/51/10 135/135/10 47/47/10
f 47/47/10 135/135/10 136/136/10
f 49/49/10 45/45/10 137/137/10
f 137/137/10 45/45/10 138/138/10
f 47/47/10 136/136/10 139/139/10
f 139/139/10 138/138/10 45/45/10
f 139/139/10 45/45/10 47/47/10
f 136/136/10 140/140/10 139/139/10
f 139/139/10 140/140/10 141/141/10
f 139/139/10 141/141/10 138/138/10
# 161 triangles in group

g bloodwater
usemtl Material.021
f 142/142/10 143/143/10 144/144/10
f 142/142/10 145/145/10 143/143/10
f 145/145/10 146/146/10 143/143/10
f 146/146/10 147/147/10 143/143/10
f 146/146/10 148/148/10 147/147/10
f 148/148/10 149/149/10 147/147/10
f 149/149/10 150/150/10 147/147/10
f 150/150/10 151/151/10 147/147/10
f 151/151/10 152/152/10 147/147/10
f 153/153/10 154/154/10 146/146/10
f 153/153/10 146/146/10 145/145/10
f 155/155/10 156/156/10 154/154/10
f 155/155/10 154/154/10 153/153/10
f 157/157/10 158/158/10 159/159/10
f 157/157/10 160/160/10 158/158/10
f 157/157/10 161/161/10 160/160/10
f 157/157/10 162/162/10 161/161/10
f 162/162/10 155/155/10 161/161/10
f 162/162/10 156/156/10 155/155/10
f 162/162/10 163/163/10 156/156/10
f 162/162/10 164/164/10 163/163/10
# 21 triangles in group

# 184 triangles total

